<?xml version="1.0" encoding="utf-8"?>
<svg xmlns="http://www.w3.org/2000/svg" xmlns:xlink="http://www.w3.org/1999/xlink" style="margin: auto; background: none; display: block; shape-rendering: auto;" width="324px" height="324px" viewBox="0 0 100 100" preserveAspectRatio="xMidYMid">
<g transform="rotate(0 50 50)">
  <rect x="45.5" y="25.5" rx="4.5" ry="4.5" width="9" height="9" fill="#4dafff">
    <animate attributeName="opacity" values="1;0" keyTimes="0;1" dur="1.7241379310344827s" begin="-1.532567049808429s" repeatCount="indefinite"></animate>
  </rect>
</g><g transform="rotate(40 50 50)">
  <rect x="45.5" y="25.5" rx="4.5" ry="4.5" width="9" height="9" fill="#4dafff">
    <animate attributeName="opacity" values="1;0" keyTimes="0;1" dur="1.7241379310344827s" begin="-1.3409961685823752s" repeatCount="indefinite"></animate>
  </rect>
</g><g transform="rotate(80 50 50)">
  <rect x="45.5" y="25.5" rx="4.5" ry="4.5" width="9" height="9" fill="#4dafff">
    <animate attributeName="opacity" values="1;0" keyTimes="0;1" dur="1.7241379310344827s" begin="-1.1494252873563218s" repeatCount="indefinite"></animate>
  </rect>
</g><g transform="rotate(120 50 50)">
  <rect x="45.5" y="25.5" rx="4.5" ry="4.5" width="9" height="9" fill="#4dafff">
    <animate attributeName="opacity" values="1;0" keyTimes="0;1" dur="1.7241379310344827s" begin="-0.9578544061302681s" repeatCount="indefinite"></animate>
  </rect>
</g><g transform="rotate(160 50 50)">
  <rect x="45.5" y="25.5" rx="4.5" ry="4.5" width="9" height="9" fill="#4dafff">
    <animate attributeName="opacity" values="1;0" keyTimes="0;1" dur="1.7241379310344827s" begin="-0.7662835249042145s" repeatCount="indefinite"></animate>
  </rect>
</g><g transform="rotate(200 50 50)">
  <rect x="45.5" y="25.5" rx="4.5" ry="4.5" width="9" height="9" fill="#4dafff">
    <animate attributeName="opacity" values="1;0" keyTimes="0;1" dur="1.7241379310344827s" begin="-0.5747126436781609s" repeatCount="indefinite"></animate>
  </rect>
</g><g transform="rotate(240 50 50)">
  <rect x="45.5" y="25.5" rx="4.5" ry="4.5" width="9" height="9" fill="#4dafff">
    <animate attributeName="opacity" values="1;0" keyTimes="0;1" dur="1.7241379310344827s" begin="-0.38314176245210724s" repeatCount="indefinite"></animate>
  </rect>
</g><g transform="rotate(280 50 50)">
  <rect x="45.5" y="25.5" rx="4.5" ry="4.5" width="9" height="9" fill="#4dafff">
    <animate attributeName="opacity" values="1;0" keyTimes="0;1" dur="1.7241379310344827s" begin="-0.19157088122605362s" repeatCount="indefinite"></animate>
  </rect>
</g><g transform="rotate(320 50 50)">
  <rect x="45.5" y="25.5" rx="4.5" ry="4.5" width="9" height="9" fill="#4dafff">
    <animate attributeName="opacity" values="1;0" keyTimes="0;1" dur="1.7241379310344827s" begin="0s" repeatCount="indefinite"></animate>
  </rect>
</g>
<!-- [ldio] generated by https://loading.io/ --></svg>